<?xml version="1.0" encoding="utf-8"?>
<!-- Generator: Adobe Illustrator 21.1.0, SVG Export Plug-In . SVG Version: 6.00 Build 0)  -->
<!DOCTYPE svg PUBLIC "-//W3C//DTD SVG 1.1//EN" "http://www.w3.org/Graphics/SVG/1.1/DTD/svg11.dtd">
<svg version="1.1" xmlns="http://www.w3.org/2000/svg" xmlns:xlink="http://www.w3.org/1999/xlink" x="0px" y="0px"
	 viewBox="0 0 512 512" style="enable-background:new 0 0 512 512;" xml:space="preserve">
<style type="text/css">
	.st0{fill:#2552F4;}
</style>
<g id="Layer_2">
	<path class="st0" d="M318.7,115.3l0,193.7c0,9.2,10.6,14.3,17.7,8.5l21-16.8c4.2-3.3,10.2-3.1,14.2,0.5l15.7,14.3
		c6.9,6.3,18,1.6,18.3-7.8l4.9-192.2c0.1-5.6-4-10.4-9.5-11.1l-34.9-4.6c-1-0.1-1.9-0.1-2.9,0l-35.1,4.7
		C322.7,105.2,318.7,109.9,318.7,115.3z"/>
</g>
<g id="Layer_1">
	<g>
		<g>
			<path d="M263.6,99.1C246.6,82.2,181.8,74.7,160,74.7c-18.6,0-80.9,1.7-103.6,24.4c-2,2-3.1,4.7-3.1,7.6V384
				c0,4.3,2.6,8.2,6.6,9.9c4,1.7,8.6,0.7,11.6-2.3c12.5-12.5,54.6-18.2,88.4-18.2c28.4,0,79.9,9.6,88.4,18.2c2,2,4.8,3.1,7.6,3.1
				c1.4,0,2.8-0.3,4.1-0.8c4-1.6,6.6-5.5,6.6-9.9V106.7C266.7,103.8,265.5,101.1,263.6,99.1z M245.3,366.2
				C219,356.4,176.8,352,160,352c-14.7,0-57.2,1.1-85.3,13V111.6C90,100.9,128.6,96,160,96c25.9,0,71.2,8,85.3,16L245.3,366.2
				L245.3,366.2z"/>
		</g>
	</g>
	<g>
		<g>
			<path d="M455.6,99.1C438.6,82.2,373.8,74.7,352,74.7c-18.6,0-80.9,1.7-103.6,24.4c-2,2-3.1,4.7-3.1,7.6V384
				c0,4.3,2.6,8.2,6.6,9.9c4,1.7,8.6,0.7,11.6-2.3c12.5-12.5,54.6-18.2,88.4-18.2c28.4,0,79.9,9.6,88.4,18.2c2,2,4.8,3.1,7.6,3.1
				c1.4,0,2.8-0.3,4.1-0.8c4-1.6,6.6-5.5,6.6-9.9V106.7C458.7,103.8,457.5,101.1,455.6,99.1z M437.3,366.2
				C411,356.4,368.8,352,352,352c-14.7,0-57.2,1.1-85.3,13V111.6C282,100.9,320.6,96,352,96c25.9,0,71.2,8,85.3,16V366.2z"/>
		</g>
	</g>
	<g>
		<g>
			<path d="M218.8,172.2C218,171.7,198.1,160,160,160c-33.6,0-57,11.3-58,11.8c-5.3,2.6-7.4,8.9-4.9,14.2s8.9,7.5,14.3,4.9
				c0.2-0.1,20.2-9.6,48.7-9.6c31.6,0,47.8,9.1,47.9,9.1c1.7,1,3.6,1.5,5.5,1.5c3.6,0,7.1-1.9,9.1-5.2
				C225.5,181.7,223.9,175.2,218.8,172.2z"/>
		</g>
	</g>
	<g>
		<g>
			<path d="M218.8,236.2C218,235.7,198.1,224,160,224c-33.6,0-57,11.3-58,11.8c-5.3,2.6-7.4,8.9-4.9,14.2c2.6,5.3,8.9,7.5,14.3,4.9
				c0.2-0.1,20.2-9.6,48.7-9.6c31.6,0,47.8,9.1,47.9,9.2c1.7,1,3.6,1.5,5.5,1.5c3.6,0,7.1-1.9,9.1-5.2
				C225.5,245.7,223.9,239.2,218.8,236.2z"/>
		</g>
	</g>
	<g>
		<g>
			<path d="M218.8,300.2C218,299.7,198.1,288,160,288c-33.6,0-57,11.3-58,11.8c-5.3,2.6-7.4,8.9-4.9,14.2c2.6,5.3,8.9,7.5,14.3,4.9
				c0.2-0.1,20.2-9.6,48.7-9.6c31.6,0,47.8,9.1,47.9,9.2c1.7,1,3.6,1.5,5.5,1.5c3.6,0,7.1-1.9,9.1-5.2
				C225.5,309.7,223.9,303.2,218.8,300.2z"/>
		</g>
	</g>
	<g>
		<g>
			<path d="M493.3,117.6l-42.7-10.7c-5.7-1.5-11.5,2-12.9,7.8c-1.4,5.7,2,11.5,7.8,12.9l34.6,8.7v278.4l-180.2-20
				c-3-0.3-6,0.6-8.3,2.7c-2.3,2-3.6,4.9-3.6,8c0,2.7-11.3,10.7-32,10.7s-32-8-32-10.7c0-3-1.3-5.9-3.5-7.9s-5.3-2.9-8.3-2.7
				L32,414.7V136.3l34.6-8.6c5.7-1.4,9.2-7.2,7.8-12.9c-1.4-5.7-7.2-9.2-12.9-7.8l-42.7,10.7c-4.8,1.2-8.1,5.5-8.1,10.3v298.7
				c0,3,1.3,5.9,3.5,8c2.3,2,5.3,3,8.3,2.7L206,416.9c7.4,12.2,26.5,20.4,50,20.4s42.6-8.3,50-20.5l183.5,20.4
				c0.4,0,0.8,0.1,1.2,0.1c2.6,0,5.1-1,7.1-2.7c2.3-2,3.6-4.9,3.6-8V128C501.3,123.1,498,118.8,493.3,117.6z"/>
		</g>
	</g>
	<g>
		<g>
			<path d="M213.3,362.7c-5.9,0-10.7,4.8-10.7,10.7v32c0,5.9,4.8,10.7,10.7,10.7s10.7-4.8,10.7-10.7v-32
				C224,367.4,219.2,362.7,213.3,362.7z"/>
		</g>
	</g>
	<g>
		<g>
			<path d="M298.7,362.7c-5.9,0-10.7,4.8-10.7,10.7v32c0,5.9,4.8,10.7,10.7,10.7s10.7-4.8,10.7-10.7v-32
				C309.3,367.4,304.6,362.7,298.7,362.7z"/>
		</g>
	</g>
	<g>
		<g>
			<path d="M384,85.3c-5.9,0-10.7,4.8-10.7,10.7v176.9l-24.4-24.4c-4.2-4.2-10.9-4.2-15.1,0l-24.4,24.4V96c0-5.9-4.8-10.7-10.7-10.7
				S288,90.1,288,96v202.7c0,4.3,2.6,8.2,6.6,9.8c4,1.7,8.6,0.7,11.6-2.3l35.1-35.1l35.1,35.1c2,2,4.8,3.1,7.6,3.1
				c1.4,0,2.8-0.3,4.1-0.8c4-1.6,6.6-5.5,6.6-9.9V96C394.7,90.1,389.9,85.3,384,85.3z"/>
		</g>
	</g>
</g>
</svg>
