<?xml version="1.0" encoding="utf-8"?>
<!-- Generator: Adobe Illustrator 21.1.0, SVG Export Plug-In . SVG Version: 6.00 Build 0)  -->
<!DOCTYPE svg PUBLIC "-//W3C//DTD SVG 1.1//EN" "http://www.w3.org/Graphics/SVG/1.1/DTD/svg11.dtd">
<svg version="1.1" xmlns="http://www.w3.org/2000/svg" xmlns:xlink="http://www.w3.org/1999/xlink" x="0px" y="0px"
	 viewBox="0 0 512 512" style="enable-background:new 0 0 512 512;" xml:space="preserve">
<style type="text/css">
	.st0{fill:#2552F4;}
</style>
<g id="Layer_2">
	<path class="st0" d="M273.6,122.5L156.7,31.4c-2.4-1.9-5.8-1.8-8.1,0.2l-109.2,92c-4.5,3.8-2,11.1,3.8,11.4l22.8,1.2
		c3.4,0.2,6.1,3,6.1,6.4v153.8c0,3.6,2.9,6.4,6.4,6.4h158.3c3.6,0,6.4-2.9,6.4-6.4V140.5c0-3.6,2.9-6.4,6.4-6.4l19.9,0
		C275.8,134,278.5,126.3,273.6,122.5z M155.8,258.1c-25.8,0-46.7-20.9-46.7-46.7c0-25.8,20.9-46.7,46.7-46.7s46.7,20.9,46.7,46.7
		C202.5,237.2,181.6,258.1,155.8,258.1z"/>
</g>
<g id="Layer_1">
	<g>
		<g>
			<path d="M138.2,145.3c-28.7,0-52.1,23.4-52.1,52.1c0,28.7,23.4,52.1,52.1,52.1c28.7,0,52.1-23.4,52.1-52.1S167,145.3,138.2,145.3
				z M138.2,233.1c-19.7,0-35.7-16-35.7-35.7s16-35.7,35.7-35.7s35.7,16,35.7,35.7C174,217.1,157.9,233.1,138.2,233.1z"/>
		</g>
	</g>
	<g>
		<g>
			<path d="M400.8,449.3c-42.3-28.8-62.5-69.2-72.1-97.9c-28.4-85.6-77.7-105-96.8-109.4v-49c20.1,2.6,71.9,14.3,102.1,67.3
				c2.2,3.9,7.3,5.3,11.2,3.1c3.9-2.2,5.3-7.3,3.1-11.2c-22.2-39-54.8-57.6-78.2-66.4c-16-6-29.9-8.4-38.1-9.3v-56.3h29.3
				c3.5,0,6.6-2.2,7.8-5.5c1.1-3.3,0.1-7-2.7-9.1L143.3,8.8c-3-2.3-7.2-2.3-10.1,0L10.2,105.4c-2.7,2.2-3.8,5.8-2.7,9.1
				c1.1,3.3,4.3,5.5,7.8,5.5h29.3v162.8v213.9c0,4.5,3.7,8.2,8.2,8.2s8.2-3.7,8.2-8.2V291.1h38v205.7c0,4.5,3.7,8.2,8.2,8.2
				s8.2-3.7,8.2-8.2v-29h44v29c0,4.5,3.7,8.2,8.2,8.2c4.5,0,8.2-3.7,8.2-8.2V291.1h39.8v205.7c0,4.5,3.7,8.2,8.2,8.2
				c4.5,0,8.2-3.7,8.2-8.2V282.9v-24c17.4,5.2,57,24.7,81.2,97.6c14.8,44.7,42,81.5,78.4,106.3c1.4,1,3,1.4,4.6,1.4
				c2.6,0,5.2-1.3,6.8-3.6C405.5,456.9,404.5,451.8,400.8,449.3z M115.4,451.4v-19.7h44v19.7H115.4z M159.3,307.1h-44v-16h44V307.1z
				 M159.3,323.5v19.7h-44v-19.7H159.3z M159.3,359.6v19.7h-44v-19.7H159.3z M159.3,395.6v19.7h-44v-19.7H159.3z M223.7,103.7H119.4
				c-4.5,0-8.2,3.7-8.2,8.2s3.7,8.2,8.2,8.2h96.1V184v64.9v25.8H61V120.1h25.6c4.5,0,8.2-3.7,8.2-8.2c0-4.5-3.7-8.2-8.2-8.2H52.8H39
				l99.3-78.1l99.3,78.1H223.7z"/>
		</g>
	</g>
	<g>
		<g>
			<path d="M497.9,423.1c-42.8-6.3-72.8-22.1-94.7-49.8c-19.4-24.6-29.7-55.6-39.7-85.7l-1.2-3.7c-1.4-4.3-6.1-6.6-10.4-5.2
				c-4.3,1.4-6.6,6.1-5.2,10.4l1.2,3.7c10.4,31.4,21.2,63.9,42.3,90.7c23,29.1,55.2,47.1,98.1,54.7v43.9c-21.7-3.2-41.9-9-59.9-17.3
				c-4.1-1.9-9-0.1-10.9,4.1c-1.9,4.1-0.1,9,4.1,10.9c22.1,10.1,47,16.7,74,19.8c0.3,0,0.6,0.1,0.9,0.1c2,0,3.9-0.7,5.5-2.1
				c1.7-1.6,2.7-3.8,2.7-6.1v-60.3C504.9,427.1,501.9,423.7,497.9,423.1z"/>
		</g>
	</g>
</g>
</svg>
