<?xml version="1.0" encoding="utf-8"?>
<!-- Generator: Adobe Illustrator 21.1.0, SVG Export Plug-In . SVG Version: 6.00 Build 0)  -->
<!DOCTYPE svg PUBLIC "-//W3C//DTD SVG 1.1//EN" "http://www.w3.org/Graphics/SVG/1.1/DTD/svg11.dtd">
<svg version="1.1" xmlns="http://www.w3.org/2000/svg" xmlns:xlink="http://www.w3.org/1999/xlink" x="0px" y="0px"
	 viewBox="0 0 512 512" style="enable-background:new 0 0 512 512;" xml:space="preserve">
<style type="text/css">
	.st0{fill:#2552F4;}
	.st1{fill:none;stroke:#000000;stroke-width:21;stroke-linejoin:round;stroke-miterlimit:10;}
</style>
<g id="Layer_2">
	<path class="st0" d="M381.6,243.2c25.1-2,43.8-24,41.7-49c-2-25.1-24-43.8-49-41.7c-25.1,2-43.7,24-41.7,49
		C334.6,226.5,356.5,245.2,381.6,243.2z"/>
	<path class="st0" d="M108.7,219.5l81.1-30.1c1.3-0.5,2.8-0.4,4.1,0.1l36.6,16.7c4.2,1.9,4.2,7.9,0,9.8l-83.3,37.6
		c-3.9,1.8-4.2,7.2-0.6,9.5c0,0,0.1,0.1,0.1,0.1c1.8,1.1,4.1,1.2,5.9,0c22.9-14.9,54.7-14.9,77.6,0c1.8,1.2,4.1,1.2,5.9,0
		c22.6-14.9,54.1-15,77.2-0.3c2.1,1.4,4.9,1.1,6.7-0.6c4-4,7.1-8.7,9.1-14c3.8-10.1,3.5-21.4-1-31.3c-3-6.7-11.2-15.2-24.3-21.1
		c-15-6.8-102.7-47.8-102.7-47.8c-4.9-2.3-10.6-2.5-15.6-0.6l-91.1,33.8c-10.6,3.9-16,15.7-12.1,26.3
		C86.3,218.1,98.2,223.5,108.7,219.5z"/>
</g>
<g id="Capa_1">
	<path class="st1" d="M362.6,222.2c25.1-2,43.8-24,41.7-49c-2-25.1-24-43.8-49-41.7c-25.1,2-43.7,24-41.7,49
		C315.6,205.5,337.5,224.2,362.6,222.2z"/>
	<path class="st1" d="M89.7,198.5l81.1-30.1c1.3-0.5,2.8-0.4,4.1,0.1l36.6,16.7c4.2,1.9,4.2,7.9,0,9.8l-83.3,37.6
		c-3.9,1.8-4.2,7.2-0.6,9.5c0,0,0.1,0.1,0.1,0.1c1.8,1.1,4.1,1.2,5.9,0c22.9-14.9,54.7-14.9,77.6,0c1.8,1.2,4.1,1.2,5.9,0
		c22.6-14.9,54.1-15,77.2-0.3c2.1,1.4,4.9,1.1,6.7-0.6c4-4,7.1-8.7,9.1-14c3.8-10.1,3.5-21.4-1-31.3c-3-6.7-11.2-15.2-24.3-21.1
		c-15-6.8-102.7-47.8-102.7-47.8c-4.9-2.3-10.6-2.5-15.6-0.6l-91.1,33.8c-10.6,3.9-16,15.7-12.1,26.3
		C67.3,197.1,79.2,202.5,89.7,198.5z"/>
	<path d="M497.5,268.5c-6.4-6.4-16.8-6.4-23.2,0c-5.1,5.1-13.5,5.1-18.7,0c-17.2-17.3-47.7-17.3-65,0c-5,5-13.6,5-18.6,0
		c-17.3-17.4-47.6-17.4-64.9,0c-5,5-13.7,5-18.6,0l-1-0.9c-17.4-16.4-47-16.1-64.1,1c-4.9,4.9-13.6,4.9-18.6,0
		c-17.1-17.1-47.9-17.1-65,0c-4.9,4.9-13.6,5-18.6,0c-17.4-17.4-47.6-17.3-64.9,0c-5.2,5.2-13.6,5.1-18.7,0
		c-6.4-6.4-16.8-6.4-23.2,0c-6.4,6.4-6.4,16.8,0,23.1c17.9,17.9,47,17.9,65,0c5-5,13.7-4.9,18.6,0c17.3,17.4,47.6,17.4,64.9,0
		c4.9-4.9,13.7-5,18.7,0c8.7,8.7,20.2,13.4,32.4,13.4c12.3,0,23.8-4.8,32.5-13.5c5-4.9,13.7-4.9,18.6,0l1,0.9
		c17.4,16.5,46.9,16.1,64-0.9c5-5,13.6-5,18.6,0c17.4,17.4,47.6,17.4,65,0c4.9-4.9,13.7-5,18.6,0c17.9,17.9,47,17.8,64.9,0
		C503.9,285.2,503.9,274.9,497.5,268.5z"/>
	<path d="M392.4,348.8l-1.8,1.5c-4.9,4.9-13.7,4.9-18.6,0c-17.3-17.4-47.6-17.4-65,0c-5,5-13.7,5-18.6,0l-1-0.9
		c-17.4-16.4-47-16.1-64.1,1c-4.9,4.9-13.6,4.9-18.6,0c-17.2-17.2-47.7-17.2-65,0c-4.9,4.9-13.6,4.9-18.6,0
		c-6.4-6.4-16.7-6.4-23.1,0c-6.4,6.4-6.4,16.7,0,23.1c17.2,17.3,47.7,17.3,64.9,0c5-5,13.6-5,18.7,0c8.7,8.7,20.2,13.4,32.4,13.4
		c12.3,0,23.8-4.8,32.5-13.5c5-4.9,13.7-4.9,18.6,0l1,0.9c17.4,16.5,47,16.1,64-0.9c5-5,13.6-5,18.6,0c17.1,17.1,47.3,17.2,64.6,0.4
		c6-5.6,7-15,1.9-21.8C409.9,344.8,399.7,343.3,392.4,348.8z"/>
</g>
</svg>
